<svg xmlns="http://www.w3.org/2000/svg" xmlns:svg="http://www.w3.org/2000/svg" id="svg3273" width="211.742" height="316.25" version="1.1" viewBox="0 0 211.742 316.25"><metadata id="metadata3389"/><defs id="defs3387"><marker id="Arrow2Lend" orient="auto" refX="0" refY="0" style="overflow:visible"><path id="path4185" d="M 8.7185878,4.0337352 L -2.2072895,0.016013256 L 8.7185884,-4.0017078 C 6.9730900,-1.6296469 6.9831476,1.6157441 8.7185878,4.0337352 z" transform="scale(1.1) rotate(180) translate(1,0)" style="font-size:12;fill-rule:evenodd;stroke-width:.625;stroke-linejoin:round"/></marker><marker id="Arrow1Lend" orient="auto" refX="0" refY="0" style="overflow:visible"><path id="path4167" d="M 0.0,0.0 L 5.0,-5.0 L -12.5,0.0 L 5.0,5.0 L 0.0,0.0 z" transform="scale(0.8) rotate(180) translate(12.5,0)" style="fill-rule:evenodd;stroke:#000;stroke-width:1pt;marker-start:none"/></marker></defs><ellipse id="ellipse3283" cx="123" cy="-306" d="m 162.1446,-306 c 0,9.94113 -17.52563,18 -39.1446,18 -21.61897,0 -39.1446,-8.05887 -39.1446,-18 0,-9.94113 17.52563,-18 39.1446,-18 21.61897,0 39.1446,8.05887 39.1446,18 z" rx="39.145" ry="18" transform="translate(0.74629974,324.5)" style="fill:#f2f2f2;stroke:#666"/><text id="text3285" x="123.746" y="23.6" font-size="14" style="font-size:14px;text-anchor:middle;font-family:'Times Roman,serif'"><tspan id="tspan3456" style="font-style:normal;font-variant:normal;font-weight:400;font-stretch:normal;font-family:Sans;-inkscape-font-specification:Helvetica">Spooled</tspan></text><ellipse id="ellipse3290" cx="123" cy="-234" d="m 160.8486,-234 c 0,9.94113 -16.9454,18 -37.8486,18 -20.9032,0 -37.848598,-8.05887 -37.848598,-18 0,-9.94113 16.945398,-18 37.848598,-18 20.9032,0 37.8486,8.05887 37.8486,18 z" rx="37.849" ry="18" transform="translate(0.74629974,324.5)" style="fill:#fff6d5;stroke:#666"/><text id="text3292" x="123.746" y="95.6" font-size="14" style="font-size:14px;text-anchor:middle;font-family:'Times Roman,serif'"><tspan id="tspan3454" style="font-style:normal;font-variant:normal;font-weight:400;font-stretch:normal;font-family:Sans;-inkscape-font-specification:Helvetica">Queued</tspan></text><g id="edge2" class="edge" transform="translate(0.74629974,324.5)"><title id="title3295">spooled-&gt;queued</title><path style="fill:none;stroke:#000" id="path3297" d="m 123,-287.831 c 0,7.7 0,16.857 0,25.414"/><polygon style="fill:#000;stroke:#000" id="polygon3299" points="123 -252.413 119.5 -262.413 126.5 -262.413 126.5 -262.413"/></g><ellipse id="ellipse3304" cx="88" cy="-162" d="m 130.2463,-162 c 0,9.94113 -18.91431,18 -42.2463,18 -23.331987,0 -42.2463,-8.05887 -42.2463,-18 0,-9.94113 18.914313,-18 42.2463,-18 23.33199,0 42.2463,8.05887 42.2463,18 z" rx="42.246" ry="18" transform="translate(0.74629974,324.5)" style="fill:#d5e5ff;stroke:#666"/><text id="text3306" x="88.746" y="167.6" font-size="14" style="font-size:14px;text-anchor:middle;font-family:'Times Roman,serif'"><tspan id="tspan3458" style="font-style:normal;font-variant:normal;font-weight:400;font-stretch:normal;font-family:Sans;-inkscape-font-specification:Helvetica">Running</tspan></text><g id="edge4" class="edge" transform="translate(0.74629974,324.5)"><title id="title3309">queued-&gt;running</title><path style="fill:none;stroke:#000" id="path3311" d="m 108.866,-216.937 c -4.862,8.21 -9.9919,18.256 -14.107,27.503"/><polygon style="fill:#000;stroke:#000" id="polygon3313" points="90.891 -180.199 91.526 -190.775 97.983 -188.071 97.983 -188.071"/></g><g id="edge10" class="edge" transform="translate(0.74629974,324.5)"><title id="title3330">running-&gt;queued</title><path style="fill:none;stroke:#000" id="path3332" d="m 102.344,-179.418 c 4.771,-8.095 9.781,-17.917 13.825,-26.986"/><polygon style="fill:#000;stroke:#000" id="polygon3334" points="120.12 -215.831 119.483 -205.256 113.027 -207.962 113.027 -207.962"/></g><ellipse id="ellipse3339" cx="42" cy="-90" d="m 84.2463,-90 c 0,9.941125 -18.914313,18 -42.2463,18 -23.331987,0 -42.24629974,-8.058875 -42.24629974,-18 0,-9.941125 18.91431274,-18 42.24629974,-18 23.331987,0 42.2463,8.058875 42.2463,18 z" rx="42.246" ry="18" transform="translate(0.74629974,324.5)" style="fill:#dde9af;stroke:#666"/><text id="text3341" x="42.746" y="239.6" font-size="14" style="font-size:14px;text-anchor:middle;font-family:'Times Roman,serif'"><tspan id="tspan3462" style="font-style:normal;font-variant:normal;font-weight:400;font-stretch:normal;font-family:Sans;-inkscape-font-specification:Helvetica">Finished</tspan></text><g id="edge6" class="edge" transform="translate(0.74629974,324.5)"><title id="title3344">running-&gt;finished</title><path style="fill:none;stroke:#000" id="path3346" d="m 76.8647,-144.571 c -5.4405,8.516 -12.1006,18.94 -18.1367,28.388"/><polygon style="fill:#000;stroke:#000" id="polygon3348" points="53.192 -107.518 55.627 -117.83 61.526 -114.061 61.526 -114.061"/></g><ellipse id="ellipse3353" cx="135" cy="-90" d="m 168.1471,-90 c 0,9.941125 -14.84046,18 -33.1471,18 -18.30664,0 -33.1471,-8.058875 -33.1471,-18 0,-9.941125 14.84046,-18 33.1471,-18 18.30664,0 33.1471,8.058875 33.1471,18 z" rx="33.147" ry="18" transform="translate(0.74629974,324.5)" style="fill:#ffd5d5;stroke:#666"/><text id="text3355" x="135.746" y="239.6" font-size="14" style="font-size:14px;text-anchor:middle;font-family:'Times Roman,serif'"><tspan id="tspan3460" style="font-style:normal;font-variant:normal;font-weight:400;font-stretch:normal;font-family:Sans;-inkscape-font-specification:Helvetica">Failed</tspan></text><g id="edge8" class="edge" transform="translate(0.74629974,324.5)"><title id="title3358">running-&gt;failed</title><path style="fill:none;stroke:#000" id="path3360" d="m 93.9077,-143.831 c 5.01,9.021 12.0513,20.042 18.9673,29.757"/><polygon style="fill:#000;stroke:#000" id="polygon3362" points="118.866 -105.957 110.112 -111.924 115.744 -116.081 115.744 -116.081"/></g><g id="edge16" class="edge" transform="translate(0.74629974,324.5)"><title id="title3365">failed-&gt;queued</title><path style="fill:none;stroke:#000" id="path3367" d="m 137.781,-108.029 c 2.35,-18.241 4.811,-47.205 1.219,-71.971 -1.257,-8.668 -3.594,-17.882 -6.1,-26.198"/><polygon style="fill:#000;stroke:#000" id="polygon3369" points="129.819 -215.8 136.207 -207.347 129.542 -205.208 129.542 -205.208"/></g><g id="edge12" class="edge" transform="translate(0.74629974,324.5)"><title id="title3372">failed-&gt;running</title><path style="fill:none;stroke:#000" id="path3374" d="m 129.259,-107.867 c -4.898,-8.858 -11.798,-19.697 -18.627,-29.343"/><polygon style="fill:#000;stroke:#000" id="polygon3376" points="104.702 -145.301 113.437 -139.305 107.791 -135.166 107.791 -135.166"/></g><text style="font-size:12.80000019px;font-style:normal;font-variant:normal;font-weight:400;font-stretch:normal;fill:gray;fill-opacity:1;stroke:none;font-family:Andale Mono;-inkscape-font-specification:Andale Mono" id="text3484" x="-79.299" y="167.801" transform="matrix(0.45689011,-0.88952314,0.88952314,0.45689011,0,0)" xml:space="preserve"><tspan id="tspan3486" x="-79.299" y="167.801" style="font-size:8px;font-style:normal;font-variant:normal;font-weight:400;font-stretch:normal;fill:gray;font-family:Sans;-inkscape-font-specification:Helvetica">relaunch</tspan></text><text style="font-size:12.80000019px;font-style:normal;font-variant:normal;font-weight:400;font-stretch:normal;fill:gray;fill-opacity:1;stroke:none;font-family:Andale Mono;-inkscape-font-specification:Andale Mono" id="text3484-4" x="-83.24" y="139.36" transform="matrix(0.45689012,-0.88952314,0.88952314,0.45689012,0,0)" xml:space="preserve"><tspan id="tspan3486-7" x="-83.24" y="139.36" style="font-size:8px;font-style:normal;font-variant:normal;font-weight:400;font-stretch:normal;fill:gray;font-family:Sans;-inkscape-font-specification:Helvetica">it&apos;s time</tspan></text><text style="font-size:12.80000019px;font-style:normal;font-variant:normal;font-weight:400;font-stretch:normal;fill:gray;fill-opacity:1;stroke:none;font-family:Andale Mono;-inkscape-font-specification:Andale Mono" id="text3484-2" x="-139.13" y="163.749" transform="matrix(0.58338724,-0.81219414,0.81219414,0.58338724,0,0)" xml:space="preserve"><tspan id="tspan3486-8" x="-139.13" y="163.749" style="font-size:8px;font-style:normal;font-variant:normal;font-weight:400;font-stretch:normal;fill:gray;font-family:Sans;-inkscape-font-specification:Helvetica">success</tspan></text><text style="font-size:12.80000019px;font-style:normal;font-variant:normal;font-weight:400;font-stretch:normal;fill:gray;fill-opacity:1;stroke:none;font-family:Andale Mono;-inkscape-font-specification:Andale Mono" id="text3484-6" x="202.277" y="21.052" transform="matrix(0.51256732,0.85864704,-0.85864704,0.51256732,0,0)" xml:space="preserve"><tspan id="tspan3486-5" x="202.277" y="21.052" style="font-size:8px;font-style:normal;font-variant:normal;font-weight:400;font-stretch:normal;fill:gray;font-family:Sans;-inkscape-font-specification:Helvetica">exception</tspan></text><text style="font-size:12.80000019px;font-style:normal;font-variant:normal;font-weight:400;font-stretch:normal;fill:gray;fill-opacity:1;stroke:none;font-family:Andale Mono;-inkscape-font-specification:Andale Mono" id="text3484-9" x="-190.69" y="161.315" transform="matrix(0.05064382,-0.99871678,0.99871678,0.05064382,0,0)" xml:space="preserve"><tspan id="tspan3486-3" x="-190.69" y="161.315" style="font-size:8px;font-style:normal;font-variant:normal;font-weight:400;font-stretch:normal;fill:gray;font-family:Sans;-inkscape-font-specification:Helvetica">schedule retry</tspan></text><text style="font-size:12.80000019px;font-style:normal;font-variant:normal;font-weight:400;font-stretch:normal;fill:gray;fill-opacity:1;stroke:none;font-family:Andale Mono;-inkscape-font-specification:Andale Mono" id="text3484-3" x="217.489" y="-12.269" transform="matrix(0.48932439,0.87210185,-0.87210185,0.48932439,0,0)" xml:space="preserve"><tspan id="tspan3486-6" x="217.489" y="-12.269" style="font-size:8px;font-style:normal;font-variant:normal;font-weight:400;font-stretch:normal;fill:gray;font-family:Sans;-inkscape-font-specification:Helvetica">run now</tspan></text><ellipse id="ellipse3290-5" cx="123" cy="-234" d="m 160.8486,-234 c 0,9.94113 -16.9454,18 -37.8486,18 -20.9032,0 -37.848598,-8.05887 -37.848598,-18 0,-9.94113 16.945398,-18 37.848598,-18 20.9032,0 37.8486,8.05887 37.8486,18 z" rx="37.849" ry="18" transform="translate(-76.551257,298.03765)" style="fill:#f6bd7b;stroke:#666;fill-opacity:1"/><text style="font-size:12px;font-style:normal;font-variant:normal;font-weight:400;font-stretch:normal;fill:#000;fill-opacity:1;stroke:none;font-family:Andale Mono;-inkscape-font-specification:Andale Mono" id="text3344" x="13.876" y="67.945" xml:space="preserve"><tspan id="tspan3346" x="13.876" y="67.945" style="font-style:normal;font-variant:normal;font-weight:400;font-stretch:normal;font-family:Sans;-inkscape-font-specification:Sans">Terminated</tspan></text><path style="fill:none;stroke:#000;stroke-width:1;stroke-linecap:butt;stroke-linejoin:miter;stroke-opacity:1;marker-end:url(#Arrow2Lend);stroke-miterlimit:4;stroke-dasharray:none" id="path4159" d="M 79.874479,144.34623 54.696654,81.835768" transform="translate(-2.4975586e-6,0)"/><text style="font-size:12.80000019px;font-style:normal;font-variant:normal;font-weight:400;font-stretch:normal;fill:gray;fill-opacity:1;stroke:none;font-family:Andale Mono;-inkscape-font-specification:Andale Mono" id="text3484-4-6" x="117.787" y="-16.395" transform="matrix(0.34229367,0.93959302,-0.93959302,0.34229367,0,0)" xml:space="preserve"><tspan id="tspan3486-7-8" x="117.787" y="-16.395" style="font-size:8px;font-style:normal;font-variant:normal;font-weight:400;font-stretch:normal;fill:gray;font-family:Sans;-inkscape-font-specification:Helvetica">AWOL</tspan></text></svg>