<svg xmlns="http://www.w3.org/2000/svg" xmlns:svg="http://www.w3.org/2000/svg" id="svg2" width="28.404" height="17.794" version="1.1"><defs id="defs4"><filter id="filter3958" color-interpolation-filters="sRGB"><feGaussianBlur id="feGaussianBlur3960" stdDeviation=".05"/></filter><filter id="filter4000" color-interpolation-filters="sRGB"><feGaussianBlur id="feGaussianBlur4002" stdDeviation=".208"/></filter><filter id="filter4084" color-interpolation-filters="sRGB"><feGaussianBlur id="feGaussianBlur4086" stdDeviation=".332"/></filter></defs><metadata id="metadata7"/><g id="layer1" transform="translate(-207.10424,-551.59734)"><rect id="rect3994" width="25.843" height="15.252" x="208.385" y="552.868" rx="1.187" ry="2" style="fill:#eeeeec;fill-opacity:1;stroke:none;filter:url(#filter4000)"/><rect id="rect4004" width="25.843" height="15.252" x="208.385" y="553.368" rx="1.187" ry="2" transform="matrix(1.0352648,0,0,1.0562875,-7.8043048,-32.076973)" style="opacity:.92181067;fill:#535a4b;fill-opacity:1;stroke:none;filter:url(#filter4084)"/><rect style="fill:#eeeeec;fill-opacity:1;stroke:#797979;stroke-width:1;stroke-miterlimit:4;stroke-opacity:1;stroke-dasharray:none" id="rect3063" width="25.843" height="15.252" x="208.385" y="552.868" rx="1.187" ry="2"/><path id="path3861" d="m 210.94131,562.98464 3,-5 3,5 z" style="fill:#babdb6;fill-opacity:1;stroke:none"/><path style="fill:#d3d7cf;stroke:#797979;stroke-width:1.05931258;stroke-miterlimit:4;stroke-opacity:1;stroke-dasharray:none" id="path3962" d="m 230.70185,561.04926 c 0,2.54834 -2.4346,4.61418 -5.43783,4.61418 -3.00323,0 -5.43783,-2.06584 -5.43783,-4.61418 0,-2.54835 2.4346,-4.61419 5.43783,-4.61419 3.00323,0 5.43783,2.06584 5.43783,4.61419 z" transform="matrix(0.82753606,0,0,0.9691864,38.585898,17.072879)"/><path style="fill:#888a85;stroke:#797979;stroke-width:1px;stroke-linecap:butt;stroke-linejoin:miter;stroke-opacity:1" id="path3968" d="m 226.80774,558.85724 -1.9952,2.31744"/><path style="fill:#888a85;stroke:#797979;stroke-width:1px;stroke-linecap:butt;stroke-linejoin:miter;stroke-opacity:1" id="path3970" d="m 223.9375,563.67468 1.02827,-2.65816"/></g></svg>